<svg width="45.85" height="48" viewBox="0 0 277 289" fill="none" xmlns="http://www.w3.org/2000/svg">
<path d="M39.6489 84.6329C41.1159 84.6564 42.5729 84.3858 43.935 83.8369C45.2972 83.2879 46.5372 82.4716 47.5829 81.4354C48.6286 80.3992 49.459 79.1639 50.0259 77.8015C50.5928 76.439 50.8847 74.9766 50.8847 73.4995C50.8847 72.0223 50.5928 70.5599 50.0259 69.1974C49.459 67.835 48.6286 66.5997 47.5829 65.5635C46.5372 64.5274 45.2972 63.711 43.935 63.1621C42.5729 62.6131 41.1159 62.3425 39.6489 62.366C33.6069 62.4582 28.7562 67.416 28.7562 73.4999C28.7562 79.5839 33.6069 84.5408 39.6489 84.6329ZM209.018 75.1958C210.482 75.2148 211.935 74.9407 213.294 74.3896C214.652 73.8385 215.888 73.0213 216.93 71.9854C217.972 70.9495 218.8 69.7155 219.364 68.3551C219.929 66.9946 220.22 65.5349 220.22 64.0604C220.219 62.586 219.928 61.1263 219.363 59.766C218.798 58.4058 217.971 57.172 216.928 56.1363C215.886 55.1007 214.65 54.2838 213.291 53.733C211.933 53.1823 210.479 52.9086 209.015 52.928C202.973 53.0201 198.123 57.9788 198.123 64.0628C198.124 70.1468 202.975 75.1046 209.018 75.1958Z" fill="#FF598B"/>
<path d="M218.684 217.56C220.158 217.583 221.623 217.313 222.992 216.767C224.361 216.22 225.607 215.407 226.658 214.375C227.709 213.344 228.543 212.114 229.113 210.757C229.682 209.401 229.976 207.945 229.975 206.474C229.975 205.004 229.682 203.548 229.112 202.191C228.542 200.835 227.707 199.605 226.656 198.574C225.605 197.542 224.358 196.73 222.989 196.184C221.62 195.637 220.155 195.368 218.681 195.392C212.608 195.483 207.733 200.42 207.734 206.477C207.735 212.534 212.611 217.469 218.684 217.56ZM84.8263 42.1699C86.2982 42.1889 87.7592 41.9163 89.1245 41.3678C90.4899 40.8193 91.7324 40.0059 92.78 38.9747C93.8276 37.9435 94.6594 36.7151 95.2271 35.3608C95.7948 34.0065 96.0871 32.5533 96.0871 31.0854C96.0871 29.6175 95.7948 28.1643 95.2271 26.8099C94.6594 25.4556 93.8276 24.2273 92.78 23.1961C91.7324 22.1649 90.4899 21.3515 89.1245 20.803C87.7592 20.2545 86.2982 19.9819 84.8263 20.0009C78.7524 20.0936 73.8779 25.0284 73.8779 31.0854C73.8779 37.1424 78.7524 42.0781 84.8263 42.1699Z" fill="#FFCD59"/>
<path d="M150.228 118.78C148.913 118.78 147.616 118.48 146.434 117.903C145.252 117.326 144.217 116.487 143.408 115.45C142.598 114.413 142.035 113.205 141.762 111.918C141.488 110.631 141.511 109.298 141.828 108.021C142.175 106.632 142.457 105.238 142.67 103.847C140.072 104.92 137.305 105.524 134.497 105.631C129.462 105.823 124.954 104.973 121.112 103.111C117.347 101.305 114.212 98.4067 112.114 94.7935C107.981 87.6242 108.338 78.1931 113.016 70.7662C117.476 63.6756 125.03 59.8379 133.22 60.4647C139.529 60.9585 145.057 63.3233 149.486 67.3811C150.292 65.1031 151.064 62.6662 151.8 60.0703C156.324 44.0883 157.818 28.0398 157.83 27.8777C157.932 26.745 158.257 25.6435 158.784 24.6362C159.312 23.6289 160.033 22.7356 160.906 22.0074C161.779 21.2791 162.786 20.7301 163.871 20.3918C164.956 20.0535 166.097 19.9325 167.228 20.0357C169.513 20.2449 171.622 21.3535 173.091 23.118C174.56 24.8825 175.269 27.1586 175.062 29.4461C175 30.1648 173.408 47.2757 168.447 64.8008C165.942 73.65 162.983 81.1276 159.63 87.0976C159.877 88.428 160.074 89.7934 160.22 91.1938C160.919 97.95 160.363 105.223 158.616 112.223C158.146 114.094 157.066 115.755 155.546 116.943C154.027 118.13 152.155 118.777 150.228 118.78ZM131.393 77.7172C130.498 77.7172 128.922 77.9795 127.653 79.9939C126.438 81.9239 126.2 84.5595 127.102 86.1251C128.302 88.2079 131.833 88.3896 133.832 88.3137C136.101 88.2275 138.426 86.8034 140.7 84.2082C140.322 83.4139 139.874 82.6545 139.362 81.9389C137.483 79.3277 135.106 77.9926 131.876 77.7397C131.754 77.7322 131.59 77.7172 131.393 77.7172Z" fill="#59B2FF"/>
<path d="M125.336 142.883C89.6838 114.619 52.4191 102.372 42.1036 115.533C41.133 116.785 40.4196 118.218 40.005 119.75C39.9418 119.936 39.8933 120.127 39.8599 120.32V120.343C39.7217 120.933 39.6185 121.531 39.5503 122.135L19.3656 240.994C16.1326 260.082 34.9216 275.366 52.8087 268.2L162.269 224.334C164.199 223.561 168.95 220.61 170.25 218.981C170.594 218.641 170.916 218.282 171.214 217.902C181.527 204.74 160.986 171.155 125.336 142.88V142.883Z" fill="#FFCD59"/>
<path d="M171.192 218.343C181.584 205.122 160.908 171.394 125.011 143.012C89.1144 114.629 51.5893 102.339 41.1983 115.56C30.8074 128.781 51.4807 162.509 87.3777 190.891C123.275 219.274 160.8 231.564 171.192 218.343Z" fill="#FFCD59"/>
<path d="M165.715 209.877C174.285 199.176 155.406 170.466 123.544 145.749C91.683 121.031 58.904 109.669 50.3348 120.366C41.7627 131.066 60.6419 159.777 92.5035 184.494C124.364 209.212 157.144 220.577 165.715 209.877Z" fill="#FFCD59"/>
<path d="M129.821 155.365C131.276 155.384 132.72 155.114 134.069 154.571C135.419 154.028 136.647 153.223 137.682 152.202C138.718 151.181 139.54 149.964 140.101 148.624C140.662 147.283 140.951 145.844 140.951 144.39C140.951 142.937 140.662 141.498 140.101 140.157C139.54 138.816 138.718 137.6 137.682 136.579C136.647 135.558 135.419 134.753 134.069 134.21C132.72 133.667 131.276 133.397 129.821 133.416C123.819 133.507 119 138.393 119 144.39C119 150.387 123.819 155.274 129.821 155.365Z" fill="#59B2FF"/>
<path d="M189.37 134.107L189.451 134.017C189.552 133.908 189.738 133.708 190.007 133.436C190.844 132.602 191.715 131.804 192.619 131.043C195.94 128.258 199.57 125.865 203.436 123.912C212.885 119.122 226.954 115.213 245.405 119.475C250.95 120.756 256.48 117.292 257.759 111.738C259.037 106.184 255.579 100.644 250.036 99.3634C226.15 93.8462 207.159 98.8905 194.131 105.5C188.84 108.174 183.876 111.451 179.337 115.266C177.974 116.413 176.662 117.619 175.404 118.88C174.916 119.371 174.44 119.874 173.977 120.389L173.865 120.515L173.825 120.56L173.807 120.581L173.8 120.588C173.797 120.593 173.792 120.598 181.601 127.327L173.792 120.598C170.175 124.918 170.687 131.346 174.942 135.036C179.197 138.726 185.621 138.313 189.37 134.107ZM87.32 60.495C86.5515 59.2727 85.5499 58.2142 84.3724 57.3803C83.195 56.5464 81.8649 55.9534 80.4583 55.6353C79.0517 55.3172 77.5963 55.2802 76.1754 55.5265C74.7546 55.7727 73.3961 56.2974 72.178 57.0705C70.9591 57.8411 69.9038 58.8448 69.0722 60.0242C68.2407 61.2036 67.6492 62.5356 67.3317 63.944C67.0141 65.3525 66.9767 66.8098 67.2216 68.2328C67.4664 69.6557 67.9887 71.0164 68.7587 72.237C69.1571 72.8754 77.3214 86.1259 78.9989 104.273C80.7062 122.711 75.2988 139.659 62.9025 154.856C67.0766 160.171 72.0996 165.695 77.8374 171.219C85.7769 162.028 91.7507 152.151 95.6757 141.7C100.504 128.843 102.212 115.21 100.756 101.185C98.4354 78.8712 88.7456 62.7615 87.32 60.495Z" fill="#FF598B"/>
<path d="M224.99 166.851C230.6 168.29 234.564 169.858 236.278 170.588C238.28 171.806 240.621 172.362 242.963 172.175C245.304 171.989 247.526 171.07 249.306 169.551C250.486 168.54 251.437 167.295 252.099 165.896C252.76 164.497 253.117 162.975 253.145 161.43C253.184 159.102 252.476 156.822 251.121 154.919C249.767 153.016 247.838 151.589 245.612 150.845C240.361 148.533 220.465 140.728 194.166 142.115C176.463 143.048 159.439 147.908 143.571 156.575C128.546 164.783 114.593 176.412 101.927 191.247C107.97 195.509 114.265 199.409 120.779 202.927C142.165 178.765 166.84 165.668 194.335 163.937C204.644 163.317 214.987 164.3 224.99 166.851Z" fill="#59B2FF"/>
</svg>
