<svg width="16" height="16" viewBox="0 0 16 16" fill="none" xmlns="http://www.w3.org/2000/svg">
<g clip-path="url(#clip0_4170_256)">
<path fill-rule="evenodd" clip-rule="evenodd" d="M8.00004 1.83337C4.59428 1.83337 1.83337 4.59428 1.83337 8.00004C1.83337 11.4058 4.59428 14.1667 8.00004 14.1667C11.4058 14.1667 14.1667 11.4058 14.1667 8.00004C14.1667 4.59428 11.4058 1.83337 8.00004 1.83337ZM0.833374 8.00004C0.833374 4.042 4.042 0.833374 8.00004 0.833374C11.9581 0.833374 15.1667 4.042 15.1667 8.00004C15.1667 11.9581 11.9581 15.1667 8.00004 15.1667C4.042 15.1667 0.833374 11.9581 0.833374 8.00004ZM8.00004 4.83337C8.27618 4.83337 8.50004 5.05723 8.50004 5.33337V8.00004C8.50004 8.27618 8.27618 8.50004 8.00004 8.50004C7.7239 8.50004 7.50004 8.27618 7.50004 8.00004V5.33337C7.50004 5.05723 7.7239 4.83337 8.00004 4.83337ZM7.50004 10.6667C7.50004 10.3906 7.7239 10.1667 8.00004 10.1667H8.00671C8.28285 10.1667 8.50671 10.3906 8.50671 10.6667C8.50671 10.9428 8.28285 11.1667 8.00671 11.1667H8.00004C7.7239 11.1667 7.50004 10.9428 7.50004 10.6667Z" fill="#FF5959"/>
</g>
<defs>
<clipPath id="clip0_4170_256">
<rect width="16" height="16" fill="white"/>
</clipPath>
</defs>
</svg>
