<svg width="16" height="16" viewBox="0 0 32 32" fill="none" xmlns="http://www.w3.org/2000/svg">
<path fill-rule="evenodd" clip-rule="evenodd" d="M5.33329 9C4.41282 9 3.66663 9.74619 3.66663 10.6667V21.3333C3.66663 22.2538 4.41282 23 5.33329 23H18.6666C19.5871 23 20.3333 22.2538 20.3333 21.3333V17.347C20.3332 17.3373 20.3332 17.3276 20.3333 17.3178V14.019C20.3331 14.0069 20.3331 13.9949 20.3333 13.9829V10.6667C20.3333 9.74619 19.5871 9 18.6666 9H5.33329ZM22.3333 12.2588V10.6667C22.3333 8.64162 20.6917 7 18.6666 7H5.33329C3.30825 7 1.66663 8.64162 1.66663 10.6667V21.3333C1.66663 23.3584 3.30825 25 5.33329 25H18.6666C20.6917 25 22.3333 23.3584 22.3333 21.3333V19.2019L27.7433 22.8085C27.9943 22.9755 28.2859 23.0713 28.587 23.0858C28.8881 23.1002 29.1875 23.0326 29.4533 22.8903C29.7191 22.748 29.9413 22.5363 30.0962 22.2777C30.2512 22.0191 30.3331 21.7233 30.3333 21.4219V10.4936C30.3333 10.4935 30.3333 10.4937 30.3333 10.4936C30.3333 10.2005 30.256 9.9122 30.1092 9.65845C29.9624 9.40462 29.7511 9.19404 29.4968 9.04796C29.2425 8.90188 28.9542 8.82548 28.661 8.82648C28.3677 8.82747 28.0799 8.90583 27.8266 9.05363L22.3333 12.2588ZM22.3333 14.5743V16.7982L28.3333 20.7982V11.0735L22.3333 14.5743Z" fill="white"/>
</svg>
